# xmcd
#
# Track frame offsets:
#	150
#	35780
#	55742
#	71272
#	81937
#	99167
#	126642
#	148997
#	174472
#	200255
#
# Disc length: 3002 seconds
#
# Revision: 1
# Processed by: cddbd v1.5.1PL0 Copyright (c) Steve Scherf et al.
# Submitted via: CDex 1.50Beta5
#
DISCID=8f0bb80a
DTITLE=森田童子 - 東京カテドラル聖マリア大聖堂録音盤
DYEAR=1993
DGENRE=
TTITLE0=地平線
TTITLE1=逆光線
TTITLE2=君は変わっちゃったネ
TTITLE3=雨のクロール
TTITLE4=ぼくと観光バスに乗ってみませんか
TTITLE5=友よ泣かないのか
TTITLE6=海を見たいと思った
TTITLE7=センチメンタル通り
TTITLE8=さよならぼくのともだち
TTITLE9=風さわぐ原地の中に
EXTD=
EXTT0=
EXTT1=
EXTT2=
EXTT3=
EXTT4=
EXTT5=
EXTT6=
EXTT7=
EXTT8=
EXTT9=
PLAYORDER=
